<svg xmlns="http://www.w3.org/2000/svg" version="1.1" xmlns:xlink="http://www.w3.org/1999/xlink" width="800" height="600" style="border: 5px solid #e5e8dc;" preserveAspectRatio="xMidYMid meet"><g transform="matrix(1,0,0,1,-93.63448015712996,0)"><circle r="5" cx="207.84609690826525" cy="345" fill="#ffefc2"></circle><circle r="5" cx="285.7883832488647" cy="390" fill="#ffefc2"></circle><circle r="5" cx="311.76914536239786" cy="435" fill="#ffefc2"></circle><circle r="5" cx="311.76914536239786" cy="345" fill="#ffefc2"></circle><circle r="5" cx="415.6921938165305" cy="525" fill="#ffefc2"></circle><circle r="5" cx="337.749907475931" cy="300" fill="#ffefc2"></circle><circle r="5" cx="285.7883832488647" cy="120" fill="#ffefc2"></circle><circle r="5" cx="545.5960043841962" cy="390" fill="#ffefc2"></circle><circle r="5" cx="597.5575286112626" cy="480" fill="#ffefc2"></circle><circle r="5" cx="623.5382907247957" cy="435" fill="#ffefc2"></circle><circle r="5" cx="519.6152422706631" cy="165" fill="#ffefc2"></circle><circle r="5" cx="597.5575286112626" cy="300" fill="#ffefc2"></circle><circle r="5" cx="649.5190528383289" cy="390" fill="#ffefc2"></circle><circle r="5" cx="675.499814951862" cy="255" fill="#ffefc2"></circle><circle r="5" cx="727.4613391789284" cy="345" fill="#ffefc2"></circle><circle r="5" cx="753.4421012924615" cy="300" fill="#ffefc2"></circle><circle r="5" cx="779.4228634059947" cy="255" fill="#ffefc2"></circle><path d="M 441.67295593006367 300 L 389.71143170299734 210" fill="none" stroke-width="2" stroke="#808080"></path><path d="M 363.7306695894642 165 L 415.6921938165305 75 L 519.6152422706631 165 L 675.499814951862 165" fill="none" stroke-width="2" stroke="#808080"></path><path d="M 337.749907475931 300 L 285.7883832488647 210" fill="none" stroke-width="2" stroke="#808080"></path><path d="M 389.71143170299734 390 L 441.67295593006367 300" fill="none" stroke-width="2" stroke="#808080"></path><path d="M 675.499814951862 345 L 571.5767664977294 345 L 441.67295593006367 480 L 415.6921938165305 435" fill="none" stroke-width="2" stroke="url(#SvgjsLinearGradient1121)"></path><path d="M 493.63448015713 210 Q422.1873843449138 288.75 441.67295593006367 300" fill="none" stroke-width="5" stroke="url(#SvgjsLinearGradient1122)"></path><circle r="0" cx="419.6873843449138" cy="286.25" fill="#cccccc"></circle><path d="M 311.76914536239786 75 Q344.24509800431434 153.75 363.7306695894642 165 T 415.6921938165305 165 T 519.6152422706631 165" fill="none" stroke-width="5" stroke="url(#SvgjsLinearGradient1123)"></path><circle r="0" cx="341.74509800431434" cy="151.25" fill="#cccccc"></circle><path d="M 233.8268590217984 300 Q318.2643358907812 288.75 337.749907475931 300" fill="none" stroke-width="5" stroke="url(#SvgjsLinearGradient1124)"></path><circle r="0" cx="315.7643358907812" cy="286.25" fill="#cccccc"></circle><path d="M 363.7306695894642 435 Q370.2258601178475 378.75 389.71143170299734 390" fill="none" stroke-width="5" stroke="url(#SvgjsLinearGradient1125)"></path><circle r="0" cx="367.7258601178475" cy="376.25" fill="#cccccc"></circle><path d="M 701.4805770653952 300 Q656.0142433667122 333.75 675.499814951862 345 T 519.6152422706631 345 T 467.6537180435968 345" fill="none" stroke-width="5" stroke="url(#SvgjsLinearGradient1126)"></path><circle r="0" cx="653.5142433667122" cy="331.25" fill="#cccccc"></circle><circle r="10" cx="441.67295593006367" cy="300" fill="url(#SvgjsRadialGradient1127)"></circle><circle r="20" cx="519.6152422706631" cy="165" fill="url(#SvgjsRadialGradient1128)"></circle><circle r="10" cx="337.749907475931" cy="300" fill="url(#SvgjsRadialGradient1129)"></circle><circle r="10" cx="389.71143170299734" cy="390" fill="url(#SvgjsRadialGradient1130)"></circle><circle r="25" cx="467.6537180435968" cy="345" fill="url(#SvgjsRadialGradient1131)"></circle></g><defs><linearGradient id="SvgjsLinearGradient1121"><stop stop-color="#0000ff" offset="0"></stop><stop stop-color="#1e90ff" offset="0.33"></stop><stop stop-color="#87ceeb" offset="0.66"></stop><stop stop-color="#e0ffff" offset="1"></stop></linearGradient><linearGradient x1="493.63448015713" y1="210" x2="441.67295593006367" y2="300" gradientUnits="userSpaceOnUse" id="SvgjsLinearGradient1122"><stop stop-color="#ffd700" offset="0"></stop><stop stop-color="#ffff00" offset="0.3"></stop><stop stop-color="#ffa500" offset="0.6"></stop><stop stop-color="#ff0000" offset="1"></stop></linearGradient><linearGradient x1="311.76914536239786" y1="75" x2="519.6152422706631" y2="165" gradientUnits="userSpaceOnUse" id="SvgjsLinearGradient1123"><stop stop-color="#00ffff" offset="0"></stop><stop stop-color="#00ff80" offset="0.3"></stop><stop stop-color="#00ff00" offset="0.6"></stop><stop stop-color="#008000" offset="1"></stop></linearGradient><linearGradient x1="233.8268590217984" y1="300" x2="337.749907475931" y2="300" gradientUnits="userSpaceOnUse" id="SvgjsLinearGradient1124"><stop stop-color="#ff69b4" offset="0"></stop><stop stop-color="#ff1493" offset="0.3"></stop><stop stop-color="#ff4500" offset="0.6"></stop><stop stop-color="#ff6347" offset="1"></stop></linearGradient><linearGradient x1="363.7306695894642" y1="435" x2="389.71143170299734" y2="390" gradientUnits="userSpaceOnUse" id="SvgjsLinearGradient1125"><stop stop-color="#8a2be2" offset="0"></stop><stop stop-color="#9370db" offset="0.3"></stop><stop stop-color="#ba55d3" offset="0.6"></stop><stop stop-color="#ff00ff" offset="1"></stop></linearGradient><linearGradient x1="701.4805770653952" y1="300" x2="467.6537180435968" y2="345" gradientUnits="userSpaceOnUse" id="SvgjsLinearGradient1126"><stop stop-color="#00bfff" offset="0"></stop><stop stop-color="#1e90ff" offset="0.3"></stop><stop stop-color="#4169e1" offset="0.6"></stop><stop stop-color="#0000ff" offset="1"></stop></linearGradient><radialGradient cx="0.5" cy="0.5" r="0.5" id="SvgjsRadialGradient1127"><stop stop-color="lightcoral" offset="0"></stop><stop stop-color="red" offset="1"></stop></radialGradient><radialGradient cx="0.5" cy="0.5" r="0.5" id="SvgjsRadialGradient1128"><stop stop-color="lightpurple" offset="0"></stop><stop stop-color="purple" offset="1"></stop></radialGradient><radialGradient cx="0.5" cy="0.5" r="0.5" id="SvgjsRadialGradient1129"><stop stop-color="lightpurple" offset="0"></stop><stop stop-color="purple" offset="1"></stop></radialGradient><radialGradient cx="0.5" cy="0.5" r="0.5" id="SvgjsRadialGradient1130"><stop stop-color="lightcoral" offset="0"></stop><stop stop-color="red" offset="1"></stop></radialGradient><radialGradient cx="0.5" cy="0.5" r="0.5" id="SvgjsRadialGradient1131"><stop stop-color="lightblue" offset="0"></stop><stop stop-color="blue" offset="1"></stop></radialGradient></defs></svg>