<svg xmlns="http://www.w3.org/2000/svg" version="1.1" viewBox="0 0 500 500">
    <defs>
        <style type="text/css">
            .hexagon {
                stroke: rgb(215, 114, 127);
                fill: none;
                visibility: hidden;
            }

            .island {
                fill: #B95C6E;
            }

            .background {
                fill: #202424;
                visibility: visible;
            }

            .travel {
                stroke: #A6D3F2;
                stroke-width: 2px;
                fill: none;
            }

            .travelMarker {
                stroke: #A6D3F2;
                fill: #A6D3F2;
                visibility: hidden;
            }

            .winner {
                stroke: #252872;
                stroke-width: 2px;
                fill: none;
            }

            .travelMarkerWinner {
                stroke: #252872;
                fill: #252872;
                visibility: hidden;
            }
        </style>
        <polygon id="hexagon" points="0,-15 12.99,-7.5 12.99,7.5 0,15 -12.99,7.5 -12.99,-7.5" />
        <rect id="island" x="-7.5" y="-7.5" width="15" height="15" />
        <marker id="shipStart" viewBox="0 0 10 10" refX="5" refY="5" markerWidth="10" markerHeight="10" orient="0">
            <rect x="2.5" y="2.5" width="5" height="5" class="travelMarker" />
        </marker>
        <marker id="shipEnd" viewBox="0 0 10 10" refX="5" refY="5" markerWidth="10" markerHeight="10" orient="auto">
            <path d="M 2.5,2.5 L 7.5,7.5 M 7.5,2.5 L 2.5,7.5" class="travelMarker" />
        </marker>
        <marker id="shipStartWinner" viewBox="0 0 10 10" refX="5" refY="5" markerWidth="10" markerHeight="10"
            orient="0">
            <rect x="2.5" y="2.5" width="5" height="5" class="travelMarkerWinner" />
        </marker>
        <marker id="shipEndWinner" viewBox="0 0 10 10" refX="5" refY="5" markerWidth="10" markerHeight="10"
            orient="auto">
            <path d="M 2.5,2.5 L 7.5,7.5 M 7.5,2.5 L 2.5,7.5" class="travelMarkerWinner" />
        </marker>
    </defs>
    <rect x="0" y="0" width="100%" height="100%" class="background" />
    <g id="hexagons">
        <use href="#hexagon" class="hexagon" x="70.932667" y="257.5" />
        <use href="#hexagon" class="hexagon" x="83.923048" y="280" />
        <use href="#hexagon" class="hexagon" x="96.91343" y="302.5" />
        <use href="#hexagon" class="hexagon" x="109.903811" y="325" />
        <use href="#hexagon" class="hexagon" x="122.894192" y="347.5" />
        <use href="#hexagon" class="hexagon" x="135.884573" y="370" />
        <use href="#hexagon" class="hexagon" x="148.874954" y="392.5" />
        <use href="#hexagon" class="hexagon" x="161.865335" y="415" />
        <use href="#hexagon" class="hexagon" x="83.923048" y="235" />
        <use href="#hexagon" class="hexagon" x="96.91343" y="257.5" />
        <use href="#hexagon" class="hexagon" x="109.903811" y="280" />
        <use href="#hexagon" class="hexagon" x="122.894192" y="302.5" />
        <use href="#hexagon" class="hexagon" x="135.884573" y="325" />
        <use href="#hexagon" class="hexagon" x="148.874954" y="347.5" />
        <use href="#island" class="island" x="148.874954" y="347.5" />
        <use href="#hexagon" class="hexagon" x="161.865335" y="370" />
        <use href="#hexagon" class="hexagon" x="174.855716" y="392.5" />
        <use href="#hexagon" class="hexagon" x="187.846097" y="415" />
        <use href="#hexagon" class="hexagon" x="96.91343" y="212.5" />
        <use href="#hexagon" class="hexagon" x="109.903811" y="235" />
        <use href="#hexagon" class="hexagon" x="122.894192" y="257.5" />
        <use href="#hexagon" class="hexagon" x="135.884573" y="280" />
        <use href="#hexagon" class="hexagon" x="148.874954" y="302.5" />
        <use href="#island" class="island" x="148.874954" y="302.5" />
        <use href="#hexagon" class="hexagon" x="161.865335" y="325" />
        <use href="#hexagon" class="hexagon" x="174.855716" y="347.5" />
        <use href="#hexagon" class="hexagon" x="187.846097" y="370" />
        <use href="#hexagon" class="hexagon" x="200.836478" y="392.5" />
        <use href="#hexagon" class="hexagon" x="213.826859" y="415" />
        <use href="#hexagon" class="hexagon" x="109.903811" y="190" />
        <use href="#hexagon" class="hexagon" x="122.894192" y="212.5" />
        <use href="#hexagon" class="hexagon" x="135.884573" y="235" />
        <use href="#island" class="island" x="135.884573" y="235" />
        <use href="#hexagon" class="hexagon" x="148.874954" y="257.5" />
        <use href="#hexagon" class="hexagon" x="161.865335" y="280" />
        <use href="#hexagon" class="hexagon" x="174.855716" y="302.5" />
        <use href="#hexagon" class="hexagon" x="187.846097" y="325" />
        <use href="#hexagon" class="hexagon" x="200.836478" y="347.5" />
        <use href="#island" class="island" x="200.836478" y="347.5" />
        <use href="#hexagon" class="hexagon" x="213.826859" y="370" />
        <use href="#hexagon" class="hexagon" x="226.81724" y="392.5" />
        <use href="#hexagon" class="hexagon" x="239.807621" y="415" />
        <use href="#hexagon" class="hexagon" x="122.894192" y="167.5" />
        <use href="#hexagon" class="hexagon" x="135.884573" y="190" />
        <use href="#hexagon" class="hexagon" x="148.874954" y="212.5" />
        <use href="#hexagon" class="hexagon" x="161.865335" y="235" />
        <use href="#hexagon" class="hexagon" x="174.855716" y="257.5" />
        <use href="#island" class="island" x="174.855716" y="257.5" />
        <use href="#hexagon" class="hexagon" x="187.846097" y="280" />
        <use href="#hexagon" class="hexagon" x="200.836478" y="302.5" />
        <use href="#island" class="island" x="200.836478" y="302.5" />
        <use href="#hexagon" class="hexagon" x="213.826859" y="325" />
        <use href="#hexagon" class="hexagon" x="226.81724" y="347.5" />
        <use href="#hexagon" class="hexagon" x="239.807621" y="370" />
        <use href="#island" class="island" x="239.807621" y="370" />
        <use href="#hexagon" class="hexagon" x="252.798002" y="392.5" />
        <use href="#hexagon" class="hexagon" x="265.788383" y="415" />
        <use href="#hexagon" class="hexagon" x="135.884573" y="145" />
        <use href="#hexagon" class="hexagon" x="148.874954" y="167.5" />
        <use href="#hexagon" class="hexagon" x="161.865335" y="190" />
        <use href="#hexagon" class="hexagon" x="174.855716" y="212.5" />
        <use href="#hexagon" class="hexagon" x="187.846097" y="235" />
        <use href="#hexagon" class="hexagon" x="200.836478" y="257.5" />
        <use href="#island" class="island" x="200.836478" y="257.5" />
        <use href="#hexagon" class="hexagon" x="213.826859" y="280" />
        <use href="#island" class="island" x="213.826859" y="280" />
        <use href="#hexagon" class="hexagon" x="226.81724" y="302.5" />
        <use href="#hexagon" class="hexagon" x="239.807621" y="325" />
        <use href="#hexagon" class="hexagon" x="252.798002" y="347.5" />
        <use href="#hexagon" class="hexagon" x="265.788383" y="370" />
        <use href="#hexagon" class="hexagon" x="278.778764" y="392.5" />
        <use href="#hexagon" class="hexagon" x="291.769145" y="415" />
        <use href="#hexagon" class="hexagon" x="148.874954" y="122.5" />
        <use href="#hexagon" class="hexagon" x="161.865335" y="145" />
        <use href="#island" class="island" x="161.865335" y="145" />
        <use href="#hexagon" class="hexagon" x="174.855716" y="167.5" />
        <use href="#hexagon" class="hexagon" x="187.846097" y="190" />
        <use href="#hexagon" class="hexagon" x="200.836478" y="212.5" />
        <use href="#hexagon" class="hexagon" x="213.826859" y="235" />
        <use href="#hexagon" class="hexagon" x="226.81724" y="257.5" />
        <use href="#hexagon" class="hexagon" x="239.807621" y="280" />
        <use href="#hexagon" class="hexagon" x="252.798002" y="302.5" />
        <use href="#hexagon" class="hexagon" x="265.788383" y="325" />
        <use href="#hexagon" class="hexagon" x="278.778764" y="347.5" />
        <use href="#island" class="island" x="278.778764" y="347.5" />
        <use href="#hexagon" class="hexagon" x="291.769145" y="370" />
        <use href="#hexagon" class="hexagon" x="304.759526" y="392.5" />
        <use href="#hexagon" class="hexagon" x="317.749907" y="415" />
        <use href="#hexagon" class="hexagon" x="161.865335" y="100" />
        <use href="#hexagon" class="hexagon" x="174.855716" y="122.5" />
        <use href="#hexagon" class="hexagon" x="187.846097" y="145" />
        <use href="#hexagon" class="hexagon" x="200.836478" y="167.5" />
        <use href="#hexagon" class="hexagon" x="213.826859" y="190" />
        <use href="#hexagon" class="hexagon" x="226.81724" y="212.5" />
        <use href="#hexagon" class="hexagon" x="239.807621" y="235" />
        <use href="#hexagon" class="hexagon" x="252.798002" y="257.5" />
        <use href="#hexagon" class="hexagon" x="265.788383" y="280" />
        <use href="#hexagon" class="hexagon" x="278.778764" y="302.5" />
        <use href="#hexagon" class="hexagon" x="291.769145" y="325" />
        <use href="#island" class="island" x="291.769145" y="325" />
        <use href="#hexagon" class="hexagon" x="304.759526" y="347.5" />
        <use href="#hexagon" class="hexagon" x="317.749907" y="370" />
        <use href="#hexagon" class="hexagon" x="330.740289" y="392.5" />
        <use href="#hexagon" class="hexagon" x="343.73067" y="415" />
        <use href="#hexagon" class="hexagon" x="187.846097" y="100" />
        <use href="#hexagon" class="hexagon" x="200.836478" y="122.5" />
        <use href="#island" class="island" x="200.836478" y="122.5" />
        <use href="#hexagon" class="hexagon" x="213.826859" y="145" />
        <use href="#hexagon" class="hexagon" x="226.81724" y="167.5" />
        <use href="#island" class="island" x="226.81724" y="167.5" />
        <use href="#hexagon" class="hexagon" x="239.807621" y="190" />
        <use href="#island" class="island" x="239.807621" y="190" />
        <use href="#hexagon" class="hexagon" x="252.798002" y="212.5" />
        <use href="#island" class="island" x="252.798002" y="212.5" />
        <use href="#hexagon" class="hexagon" x="265.788383" y="235" />
        <use href="#hexagon" class="hexagon" x="278.778764" y="257.5" />
        <use href="#hexagon" class="hexagon" x="291.769145" y="280" />
        <use href="#island" class="island" x="291.769145" y="280" />
        <use href="#hexagon" class="hexagon" x="304.759526" y="302.5" />
        <use href="#hexagon" class="hexagon" x="317.749907" y="325" />
        <use href="#island" class="island" x="317.749907" y="325" />
        <use href="#hexagon" class="hexagon" x="330.740289" y="347.5" />
        <use href="#hexagon" class="hexagon" x="343.73067" y="370" />
        <use href="#hexagon" class="hexagon" x="356.721051" y="392.5" />
        <use href="#hexagon" class="hexagon" x="213.826859" y="100" />
        <use href="#hexagon" class="hexagon" x="226.81724" y="122.5" />
        <use href="#island" class="island" x="226.81724" y="122.5" />
        <use href="#hexagon" class="hexagon" x="239.807621" y="145" />
        <use href="#hexagon" class="hexagon" x="252.798002" y="167.5" />
        <use href="#island" class="island" x="252.798002" y="167.5" />
        <use href="#hexagon" class="hexagon" x="265.788383" y="190" />
        <use href="#hexagon" class="hexagon" x="278.778764" y="212.5" />
        <use href="#island" class="island" x="278.778764" y="212.5" />
        <use href="#hexagon" class="hexagon" x="291.769145" y="235" />
        <use href="#hexagon" class="hexagon" x="304.759526" y="257.5" />
        <use href="#hexagon" class="hexagon" x="317.749907" y="280" />
        <use href="#island" class="island" x="317.749907" y="280" />
        <use href="#hexagon" class="hexagon" x="330.740289" y="302.5" />
        <use href="#hexagon" class="hexagon" x="343.73067" y="325" />
        <use href="#hexagon" class="hexagon" x="356.721051" y="347.5" />
        <use href="#hexagon" class="hexagon" x="369.711432" y="370" />
        <use href="#hexagon" class="hexagon" x="239.807621" y="100" />
        <use href="#hexagon" class="hexagon" x="252.798002" y="122.5" />
        <use href="#hexagon" class="hexagon" x="265.788383" y="145" />
        <use href="#hexagon" class="hexagon" x="278.778764" y="167.5" />
        <use href="#hexagon" class="hexagon" x="291.769145" y="190" />
        <use href="#hexagon" class="hexagon" x="304.759526" y="212.5" />
        <use href="#hexagon" class="hexagon" x="317.749907" y="235" />
        <use href="#hexagon" class="hexagon" x="330.740289" y="257.5" />
        <use href="#hexagon" class="hexagon" x="343.73067" y="280" />
        <use href="#hexagon" class="hexagon" x="356.721051" y="302.5" />
        <use href="#hexagon" class="hexagon" x="369.711432" y="325" />
        <use href="#hexagon" class="hexagon" x="382.701813" y="347.5" />
        <use href="#hexagon" class="hexagon" x="265.788383" y="100" />
        <use href="#hexagon" class="hexagon" x="278.778764" y="122.5" />
        <use href="#hexagon" class="hexagon" x="291.769145" y="145" />
        <use href="#hexagon" class="hexagon" x="304.759526" y="167.5" />
        <use href="#hexagon" class="hexagon" x="317.749907" y="190" />
        <use href="#hexagon" class="hexagon" x="330.740289" y="212.5" />
        <use href="#hexagon" class="hexagon" x="343.73067" y="235" />
        <use href="#hexagon" class="hexagon" x="356.721051" y="257.5" />
        <use href="#hexagon" class="hexagon" x="369.711432" y="280" />
        <use href="#hexagon" class="hexagon" x="382.701813" y="302.5" />
        <use href="#hexagon" class="hexagon" x="395.692194" y="325" />
        <use href="#hexagon" class="hexagon" x="291.769145" y="100" />
        <use href="#hexagon" class="hexagon" x="304.759526" y="122.5" />
        <use href="#hexagon" class="hexagon" x="317.749907" y="145" />
        <use href="#island" class="island" x="317.749907" y="145" />
        <use href="#hexagon" class="hexagon" x="330.740289" y="167.5" />
        <use href="#hexagon" class="hexagon" x="343.73067" y="190" />
        <use href="#hexagon" class="hexagon" x="356.721051" y="212.5" />
        <use href="#hexagon" class="hexagon" x="369.711432" y="235" />
        <use href="#hexagon" class="hexagon" x="382.701813" y="257.5" />
        <use href="#hexagon" class="hexagon" x="395.692194" y="280" />
        <use href="#hexagon" class="hexagon" x="408.682575" y="302.5" />
        <use href="#hexagon" class="hexagon" x="317.749907" y="100" />
        <use href="#hexagon" class="hexagon" x="330.740289" y="122.5" />
        <use href="#hexagon" class="hexagon" x="343.73067" y="145" />
        <use href="#hexagon" class="hexagon" x="356.721051" y="167.5" />
        <use href="#hexagon" class="hexagon" x="369.711432" y="190" />
        <use href="#hexagon" class="hexagon" x="382.701813" y="212.5" />
        <use href="#hexagon" class="hexagon" x="395.692194" y="235" />
        <use href="#hexagon" class="hexagon" x="408.682575" y="257.5" />
        <use href="#hexagon" class="hexagon" x="421.672956" y="280" />
        <use href="#hexagon" class="hexagon" x="343.73067" y="100" />
        <use href="#hexagon" class="hexagon" x="356.721051" y="122.5" />
        <use href="#hexagon" class="hexagon" x="369.711432" y="145" />
        <use href="#hexagon" class="hexagon" x="382.701813" y="167.5" />
        <use href="#hexagon" class="hexagon" x="395.692194" y="190" />
        <use href="#hexagon" class="hexagon" x="408.682575" y="212.5" />
        <use href="#hexagon" class="hexagon" x="421.672956" y="235" />
        <use href="#hexagon" class="hexagon" x="434.663337" y="257.5" />
    </g>
    <g id="travels">
        <path d="M 161.865335 190 L 174.855716 212.5 L 161.865335 235" class="travel" marker-start="url(#shipStart)"
            marker-end="url(#shipEnd)" />
        <path d="M 213.826859 100 L 265.788383 100 L 239.807621 145 L 213.826859 145" class="travel"
            marker-start="url(#shipStart)" marker-end="url(#shipEnd)" />
    </g>
    <g id="winners">
        <path d="M 187.846097 280 L 135.884573 280 L 148.874954 257.5 L 187.846097 190" class="winner"
            marker-start="url(#shipStartWinner)" marker-end="url(#shipEndWinner)" />
    </g>
</svg>