<?xml version="1.0"?><svg xmlns="http://www.w3.org/2000/svg" viewBox="0 0 500 500" preserveAspectRatio="xMinYMin meet" version="1.1"><defs><style type="text/css">.background { fill: none; }.sailTop { stop-color: rgb(81,37,122); }.sailBottom { stop-color: rgb(152,191,155); }.bodyColor1 { fill: rgb(81,37,122); }.bodyColor2 { fill: rgb(152,191,155); }.hull { fill: rgb(160,31,141); }.windowLine { fill: rgb(0,177,181); }.window { fill: rgb(51,159,231); }.masts { stroke: rgb(52,123,113); }.flags { stroke: rgb(187,231,219); }.signet1 { fill: rgb(240,3,119); }.signet2 { fill: rgb(66,56,166); }.signet3 { fill: rgb(183,117,1); }.flagsBorder { opacity:1; }.border { fill: #fff }</style><linearGradient id="sailGradient" gradientTransform="rotate(90)"> <stop offset="5%" class="sailTop"/> <stop offset="95%" class="sailBottom"/> </linearGradient></defs><rect width="100%" height="100%" class="background" fill="none"/><g transform="scale(10) translate(9 13)"> <g id="border" class="border"> <path d="M6 15 h2 v-2 h1 v-1 h1 v-1 h1 v-1 h1 v-1 h1 v-1 h1 v-1 h1 v-1 h3 v9 h8 v3 h-1 v1 h-1 v1 h-1 v1 h-14 v-1 h-2 v-2 h-1 z"/> <g class="flagsBorder"> <path d="M13 5 h5 v3 h-5z"/> </g> </g> <g> <path id="hull" d="M7 16 h 18 v1 h-1 v1 h-1 v1 h-1 v1 h-12 v-1 h-2 v-2  h-1  z" class="hull"/> <path id="windowLine" d="M7 16 h18 v1 h-18 z" class="window-line"/> </g> <g id="masts" class="masts"> <path d="M16.5 7 v9"/> </g> <g id="flags" class="flags flagsBorder"> <path d="M14 6.5 h3"/> </g> <g id="sails" fill="url(#sailGradient)"> <path d="M9 15 v-1 h1 v-1 h1 v-1 h1 v-1 h1 v-1 h1 v-1 h1 v-1 h1 v7 z"/> </g> </g><g id="signets" transform="scale(10) translate(9 13)"> <g id="signet1" class="signet1"><path d="M15 9 h1 v1 h-1 z"/><path d="M14 10 h1 v1 h-1 z"/><path d="M15 10 h1 v1 h-1 z"/><path d="M12 11 h1 v1 h-1 z"/><path d="M13 11 h1 v1 h-1 z"/><path d="M14 11 h1 v1 h-1 z"/><path d="M11 12 h1 v1 h-1 z"/><path d="M13 12 h1 v1 h-1 z"/><path d="M15 12 h1 v1 h-1 z"/><path d="M13 13 h1 v1 h-1 z"/><path d="M12 14 h1 v1 h-1 z"/><path d="M13 14 h1 v1 h-1 z"/><path d="M14 14 h1 v1 h-1 z"/><path d="M15 14 h1 v1 h-1 z"/></g> </g></svg>