<?xml version="1.0" ?><svg xmlns="http://www.w3.org/2000/svg" width="320" height="240" version="1.1"><defs><style type="text/css">.sailTop { stop-color: rgb(176,183,90); }.sailBottom { stop-color: rgb(21,84,41); }.bodyColor1 { fill: rgb(176,183,90); }.bodyColor2 { fill: rgb(21,84,41); }.hull { fill: rgb(54,135,154); }.windowLine { fill: rgb(29,102,68); }.window { fill: rgb(206,164,190); }.masts { stroke: rgb(148,38,148); }.flags { stroke: rgb(146,73,189); }.signet1 { fill: rgb(249,42,184); }.signet2 { fill: rgb(237,181,40); }.signet3 { fill: rgb(201,108,166); }.flagsBorder { opacity:0; }.border { fill: #fff }</style><linearGradient id="sailGradient" gradientTransform="rotate(90)"> <stop offset="5%"  class="sailTop"/> <stop offset="95%" class="sailBottom"/> </linearGradient></defs><g transform="scale(10)"> <g id="border" class="border"> <path d="M3 9 h1 v-1 h1 v-1 h1 v-1 h3 v-1 h7 v-1 h3 v2 h1 v-1 h3 v2 h1 v1 h1 v1 h1 v1 h1 v1 h1 v1 h1 v6 h-2 v1 h-1 v1 h-1 v1 h-1 v1 h-17 v-4 h-2 v-4 h-1 v-1 h-1 z"/> <g class="flagsBorder"> <path d="M7 4 h5 v3 h-5z" /> <path d="M14 3 h5 v3 h-5z" /> <path d="M19 4 h4 v3 h-4z" /> </g> </g> <g> <path id="hull" d="M6 16 h 22 v1 h-2 v1 h-1 v1 h-1 v1 h-1 v1 h-15 v-1 h1 v-1 h1 v-1 h-2 v-1 h-2 z" class="hull" /> <path id="window-line" d="M10 18 h15 v1 h-15 z" class="windowLine"/> <g id="windows" class="window"> <path id="window-1" d="M12 18 h1 v1 h-1 z" /> <path id="window-1" d="M12 18 h1 v1 h-1 z" /> <path id="window-2" d="M12 18 h1 v1 h-1 z" /> </g> </g> <g id="masts" class="masts"> <path d="M10.5 6 v10" /> <path d="M17.5 5 v11" /> <path d="M21.5 6 v10" /> </g> <g id="flags" class="flags flagsBorder"> <path d="M8 5.5 h3" /> <path d="M15 4.5 h3" /> <path d="M20 5.5 h2" /> </g> <g id="sails" fill="url(#sailGradient)"> <rect x="12" y="6" width="5" height="9" /> <rect x="19" y="7" width="2" height="8" /> <path d="M7 7 h3 v8 h-3 v-1 h-1 v-1 h-1 v-1 h-1  v-2 h1 v-1 h1 v-1 h1 z"/> <path d=" M22 8 h1 v1 h1 v1 h1 v1 h1 v1 h1 v1  h1 v2 h-6 z" /> </g> </g><g id="signets" transform="scale(10)"> <g id="signet1" class="signet1"><path d="M12 6 h1 v1 h-1 z" /><path d="M7 7 h1 v1 h-1 z" /><path d="M13 7 h1 v1 h-1 z" /><path d="M15 7 h1 v1 h-1 z" /><path d="M19 7 h1 v1 h-1 z" /><path d="M20 7 h1 v1 h-1 z" /><path d="M12 8 h1 v1 h-1 z" /><path d="M15 8 h1 v1 h-1 z" /><path d="M20 8 h1 v1 h-1 z" /><path d="M6 9 h1 v1 h-1 z" /><path d="M8 9 h1 v1 h-1 z" /><path d="M12 9 h1 v1 h-1 z" /><path d="M20 9 h1 v1 h-1 z" /><path d="M22 9 h1 v1 h-1 z" /><path d="M7 10 h1 v1 h-1 z" /><path d="M9 10 h1 v1 h-1 z" /><path d="M12 10 h1 v1 h-1 z" /><path d="M16 10 h1 v1 h-1 z" /><path d="M19 10 h1 v1 h-1 z" /><path d="M22 10 h1 v1 h-1 z" /><path d="M24 10 h1 v1 h-1 z" /><path d="M4 11 h1 v1 h-1 z" /><path d="M5 11 h1 v1 h-1 z" /><path d="M6 11 h1 v1 h-1 z" /><path d="M7 11 h1 v1 h-1 z" /><path d="M12 11 h1 v1 h-1 z" /><path d="M16 11 h1 v1 h-1 z" /><path d="M19 11 h1 v1 h-1 z" /><path d="M20 11 h1 v1 h-1 z" /><path d="M22 11 h1 v1 h-1 z" /><path d="M23 11 h1 v1 h-1 z" /><path d="M25 11 h1 v1 h-1 z" /><path d="M8 12 h1 v1 h-1 z" /><path d="M13 12 h1 v1 h-1 z" /><path d="M15 12 h1 v1 h-1 z" /><path d="M19 12 h1 v1 h-1 z" /><path d="M20 12 h1 v1 h-1 z" /><path d="M22 12 h1 v1 h-1 z" /><path d="M25 12 h1 v1 h-1 z" /><path d="M8 13 h1 v1 h-1 z" /><path d="M19 13 h1 v1 h-1 z" /><path d="M23 13 h1 v1 h-1 z" /><path d="M24 13 h1 v1 h-1 z" /><path d="M27 13 h1 v1 h-1 z" /><path d="M8 14 h1 v1 h-1 z" /><path d="M9 14 h1 v1 h-1 z" /><path d="M12 14 h1 v1 h-1 z" /><path d="M13 14 h1 v1 h-1 z" /><path d="M19 14 h1 v1 h-1 z" /><path d="M25 14 h1 v1 h-1 z" /><path d="M26 14 h1 v1 h-1 z" /></g> </g></svg>