<?xml version="1.0" ?><svg xmlns="http://www.w3.org/2000/svg" width="320" height="240" version="1.1"><defs><style type="text/css">.sailTop { stop-color: rgb(106,127,7); }.sailBottom { stop-color: rgb(96,159,13); }.bodyColor1 { fill: rgb(106,127,7); }.bodyColor2 { fill: rgb(96,159,13); }.hull { fill: rgb(117,207,218); }.windowLine { fill: rgb(35,2,218); }.window { fill: rgb(144,245,187); }.masts { stroke: rgb(168,49,249); }.flags { stroke: rgb(2,167,113); }.signet1 { fill: rgb(11,150,12); }.signet2 { fill: rgb(108,27,23); }.signet3 { fill: rgb(64,21,110); }.flagsBorder { opacity:1; }.border { fill: #fff }</style><linearGradient id="sailGradient" gradientTransform="rotate(90)"> <stop offset="5%"  class="sailTop"/> <stop offset="95%" class="sailBottom"/> </linearGradient></defs><g transform="scale(10)"> <g id="border" class="border"> <path d="M6 15 h2 v-2 h1 v-1 h1 v-1 h1 v-1 h1 v-1 h1 v-1 h1 v-1 h1 v-1 h3 v9 h8 v3 h-1 v1 h-1 v1 h-1 v1 h-14 v-1 h-2 v-2 h-1 z" /> <g class="flagsBorder"> <path d="M13 5 h5 v3 h-5z" /> </g> </g> <g> <path id="hull" d="M7 16 h 18 v1 h-1 v1 h-1 v1 h-1 v1 h-12 v-1 h-2 v-2  h-1  z" class="hull" /> <path id="windowLine" d="M7 16 h18 v1 h-18 z" class="window-line" /> </g> <g id="masts" class="masts"> <path d="M16.5 7 v9" /> </g> <g id="flags" class="flags flagsBorder"> <path d="M14 6.5 h3" /> </g> <g id="sails" fill="url(#sailGradient)"> <path d="M9 15 v-1 h1 v-1 h1 v-1 h1 v-1 h1 v-1 h1 v-1 h1 v-1 h1 v7 z" /> </g> </g><g id="signets" transform="scale(10)"> <g id="signet1" class="signet1"><path d="M15 8 h1 v1 h-1 z" /><path d="M14 9 h1 v1 h-1 z" /><path d="M13 10 h1 v1 h-1 z" /><path d="M11 12 h1 v1 h-1 z" /><path d="M11 13 h1 v1 h-1 z" /><path d="M9 14 h1 v1 h-1 z" /><path d="M13 14 h1 v1 h-1 z" /></g> </g></svg>