<?xml version="1.0" ?><svg xmlns="http://www.w3.org/2000/svg" width="320" height="240" version="1.1"><defs><style type="text/css">.sailTop { stop-color: rgb(166,75,200); }.sailBottom { stop-color: rgb(111,56,136); }.bodyColor1 { fill: rgb(166,75,200); }.bodyColor2 { fill: rgb(111,56,136); }.hull { fill: rgb(243,14,22); }.windowLine { fill: rgb(147,47,54); }.window { fill: rgb(246,8,64); }.masts { stroke: rgb(72,149,188); }.flags { stroke: rgb(169,69,3); }.signet1 { fill: rgb(214,168,98); }.signet2 { fill: rgb(139,84,217); }.signet3 { fill: rgb(236,13,41); }.flagsBorder { opacity:1; }.border { fill: #fff }</style><linearGradient id="sailGradient" gradientTransform="rotate(90)"> <stop offset="5%"  class="sailTop"/> <stop offset="95%" class="sailBottom"/> </linearGradient></defs><g transform="scale(10)"> <g id="border" class="border"> <path d="M1 12 h5 v-1 h2 v-1 h2 v-1 h2 v-1 h2 v-1 h1 v-1 h3 v1 h1 v1 h2 v1 h2 v1 h2 v1 h2 v1 h5 v3 h-2 v1 h-1 v1 h-1 v1 h-1 v1 h-27 v-3 h1 z" /> <g class="flagsBorder"> <path d="M13 5 h5 v3 h-5z" /> </g> </g> <g> <path id="hull" d="M2 13 h 29 v1 h-2 v1 h-1 v1 h-1 v1 h-1 v1 h-25 v-1 h1 v-1 h1 v-1 h1 v-1 h-2 z" class="hull" /> <path id="window-line" d="M2 13 h29 v1 h-2 v1 h-25 v-1 h-2 z" class="windowLine" /> <g id="windows" class="window"> <path d="M9 14 h1 v1 h-1 z" /> <path d="M13 14 h1 v1 h-1 z" /> <path d="M17 14 h1 v1 h-1 z" /> <path d="M21 14 h1 v1 h-1 z" /> <path d="M11 13 h1 v1 h-1 z" /> <path d="M15 13 h1 v1 h-1 z" /> <path d="M19 13 h1 v1 h-1 z" /> <path d="M23 13 h1 v1 h-1 z" /> </g> </g> <g id="masts" class="masts"> <path d="M16.5 7 v1" /> </g> <g id="flags" class="flags flagsBorder"> <path d="M14 6.5 h3" /> </g> <g id="body"> <g class="bodyColor1"> <path d="M7 12 h19 v1 h-19 z" /> <path d="M11 10 h11 v1 h-11 z" /> <path d="M15 8 h3 v1 h-3 z" /> </g> <g class="bodyColor2"> <path d="M9 11 h15 v1 h-15 z" /> <path d="M13 9 h7 v1 h-7 z" /> </g> </g> </g><g id="signets" transform="scale(10)"> <g id="signet1" class="signet1"></g> </g></svg>