<?xml version="1.0"?><svg xmlns="http://www.w3.org/2000/svg" viewBox="0 0 500 500" preserveAspectRatio="xMinYMin meet" version="1.1"><defs><style type="text/css">.background { fill: none; }.sailTop { stop-color: rgb(3,116,160); }.sailBottom { stop-color: rgb(147,214,217); }.bodyColor1 { fill: rgb(3,116,160); }.bodyColor2 { fill: rgb(147,214,217); }.hull { fill: rgb(26,88,125); }.windowLine { fill: rgb(15,180,64); }.window { fill: rgb(66,234,244); }.masts { stroke: rgb(108,2,157); }.flags { stroke: rgb(46,192,223); }.signet1 { fill: rgb(221,39,124); }.signet2 { fill: rgb(203,11,225); }.signet3 { fill: rgb(8,17,141); }.flagsBorder { opacity:0; }.border { fill: #fff }</style><linearGradient id="sailGradient" gradientTransform="rotate(90)"> <stop offset="5%" class="sailTop"/> <stop offset="95%" class="sailBottom"/> </linearGradient></defs><rect width="100%" height="100%" class="background" fill="none"/><g transform="scale(10) translate(9 13)"> <g id="border" class="border"> <path d="M1 7 h1 v-1 h1 v-1 h4 v-1 h6 v-1 h3 v2 h3 v-1 h3 v3 h3 v1 h1 v1 h1 v1 h1 v1 h1 v1 h1 v1 h1 v5 h-3 v1 h-1 v1 h-1 v1 h-1 v2 h-21 v-3 h1 v-2 h-2 v-4 h-1v-1 h-1 z"/> <g class="flagsBorder"> <path d="M5 3 h5 v3 h-5z"/> <path d="M11 2 h5 v3 h-5z"/> <path d="M18 3 h4 v3 h-4z"/> <path d="M21 6 h4 v3 h-4z"/> </g> </g> <g> <path id="hull" d="M4 16 h 26 v1 h-3 v1 h-1 v1 h-1 v1 h-1 v2 h-19 v-1 h1 v-1 h1 v-1 h1 v-1 h-2 v-1 h-2 z" class="hull"/> <path id="window-line" d="M8 18 h18 v1 h-18 z" class="windowLine"/> <g id="windows" class="window"> <path d="M13 18 h1 v1 h-1 z"/> <path d="M10 18 h1 v1 h-1 z"/> <path d="M19 18 h1 v1 h-1 z"/> <path d="M22 18 h1 v1 h-1 z"/> </g> </g> <g id="masts" class="masts"> <path d="M8.5 5 v11"/> <path d="M14.5 4 v12"/> <path d="M20.5 5 v11"/> <path d="M23.5 8 v8"/> </g> <g id="flags" class="flags flagsBorder"> <path d="M6 4.5 h3"/> <path d="M12 3.5 h3"/> <path d="M19 4.5 h2"/> <path d="M22 7.5 h2"/> </g> <g id="sails" fill="url(#sailGradient)"> <rect x="10" y="5" width="4" height="10"/> <rect x="16" y="6" width="4" height="9"/> <path d="M4 6 h4 v9 h-3 v-1 h-1 v-1 h-1 v-1 h-1  v-4 h1 v-1 h1 v-1 h1 z"/> <path d=" M24 9 h1 v1 h1 v1 h1 v1 h1 v1 h1 v1 h1 v1 h-6 z"/> </g> </g><g id="signets" transform="scale(10) translate(9 13)"> <g id="signet1" class="signet1"><path d="M11 5 h1 v1 h-1 z"/><path d="M4 6 h1 v1 h-1 z"/><path d="M5 6 h1 v1 h-1 z"/><path d="M6 6 h1 v1 h-1 z"/><path d="M10 6 h1 v1 h-1 z"/><path d="M11 6 h1 v1 h-1 z"/><path d="M18 6 h1 v1 h-1 z"/><path d="M6 7 h1 v1 h-1 z"/><path d="M11 7 h1 v1 h-1 z"/><path d="M13 7 h1 v1 h-1 z"/><path d="M18 7 h1 v1 h-1 z"/><path d="M10 8 h1 v1 h-1 z"/><path d="M11 8 h1 v1 h-1 z"/><path d="M12 8 h1 v1 h-1 z"/><path d="M16 8 h1 v1 h-1 z"/><path d="M17 8 h1 v1 h-1 z"/><path d="M5 9 h1 v1 h-1 z"/><path d="M7 9 h1 v1 h-1 z"/><path d="M12 9 h1 v1 h-1 z"/><path d="M17 9 h1 v1 h-1 z"/><path d="M18 9 h1 v1 h-1 z"/><path d="M24 9 h1 v1 h-1 z"/><path d="M5 10 h1 v1 h-1 z"/><path d="M7 10 h1 v1 h-1 z"/><path d="M11 10 h1 v1 h-1 z"/><path d="M17 10 h1 v1 h-1 z"/><path d="M18 10 h1 v1 h-1 z"/><path d="M19 10 h1 v1 h-1 z"/><path d="M24 10 h1 v1 h-1 z"/><path d="M25 10 h1 v1 h-1 z"/><path d="M4 11 h1 v1 h-1 z"/><path d="M6 11 h1 v1 h-1 z"/><path d="M11 11 h1 v1 h-1 z"/><path d="M13 11 h1 v1 h-1 z"/><path d="M16 11 h1 v1 h-1 z"/><path d="M17 11 h1 v1 h-1 z"/><path d="M24 11 h1 v1 h-1 z"/><path d="M26 11 h1 v1 h-1 z"/><path d="M4 12 h1 v1 h-1 z"/><path d="M5 12 h1 v1 h-1 z"/><path d="M6 12 h1 v1 h-1 z"/><path d="M10 12 h1 v1 h-1 z"/><path d="M11 12 h1 v1 h-1 z"/><path d="M12 12 h1 v1 h-1 z"/><path d="M13 12 h1 v1 h-1 z"/><path d="M17 12 h1 v1 h-1 z"/><path d="M24 12 h1 v1 h-1 z"/><path d="M26 12 h1 v1 h-1 z"/><path d="M27 12 h1 v1 h-1 z"/><path d="M6 13 h1 v1 h-1 z"/><path d="M7 13 h1 v1 h-1 z"/><path d="M13 13 h1 v1 h-1 z"/><path d="M16 13 h1 v1 h-1 z"/><path d="M18 13 h1 v1 h-1 z"/><path d="M27 13 h1 v1 h-1 z"/><path d="M28 13 h1 v1 h-1 z"/><path d="M5 14 h1 v1 h-1 z"/><path d="M7 14 h1 v1 h-1 z"/><path d="M10 14 h1 v1 h-1 z"/><path d="M12 14 h1 v1 h-1 z"/><path d="M17 14 h1 v1 h-1 z"/><path d="M27 14 h1 v1 h-1 z"/></g> </g></svg>