<?xml version="1.0" ?><svg xmlns="http://www.w3.org/2000/svg" width="320" height="240" version="1.1"><defs><style type="text/css">.sailTop { stop-color: rgb(79,192,22); }.sailBottom { stop-color: rgb(92,17,101); }.bodyColor1 { fill: rgb(79,192,22); }.bodyColor2 { fill: rgb(92,17,101); }.hull { fill: rgb(124,55,63); }.windowLine { fill: rgb(159,229,123); }.window { fill: rgb(201,237,170); }.masts { stroke: rgb(130,252,62); }.flags { stroke: rgb(11,146,141); }.signet1 { fill: rgb(82,89,132); }.signet2 { fill: rgb(226,19,35); }.signet3 { fill: rgb(34,82,246); }.flagsBorder { opacity:1; }.border { fill: #fff }</style><linearGradient id="sailGradient" gradientTransform="rotate(90)"> <stop offset="5%"  class="sailTop"/> <stop offset="95%" class="sailBottom"/> </linearGradient></defs><g transform="scale(10)"> <g id="border" class="border"> <path d="M0 8 h1 v-1 h1 v-1 h1 v-1 h1 v-1 h3 v-1 h3 v1 h2 v-1 h3 v1 h2 v-1 h3 v3 h1 v-1 h3 v3 h3 v1 h1 v1 h1 v1 h1 v1 h1 v1 h1 v5 h-3 v1 h-1 v1 h-1 v1 h-1 v2 h-22 v-3 h1 v-2 h-2 v-4 h-1 v-1 h-1 v-1 h-1 z" /> <g class="flagsBorder"> <path d="M5 2 h5 v3 h-5z" /> <path d="M10 2 h5 v3 h-5z" /> <path d="M15 2 h5 v3 h-5z" /> <path d="M20 4 h4 v3 h-4z" /> <path d="M23 7 h4 v3 h-4z" /> </g> </g> <g> <path id="hull" d="M4 16 h 27 v1 h-3 v1 h-1 v1 h-1 v1 h-1 v2 h-20 v-1 h1 v-1 h1 v-1 h1 v-1 h-2 v-1 h-2 z" class="hull" /> <path id="window-line" d="M8 18 h19 v1 h-19 z" class="windowLine" /> <g id="windows" class="window"> <path d="M11 18 h1 v1 h-1 z" /> <path d="M14 18 h1 v1 h-1 z" /> <path d="M17 18 h1 v1 h-1 z" /> <path d="M20 18 h1 v1 h-1 z" /> <path d="M23 18 h1 v1 h-1 z" /> </g> </g> <g id="masts" class="masts"> <path d="M8.5 4 v12" /> <path d="M13.5 4 v12" /> <path d="M18.5 4 v12" /> <path d="M22.5 6 v10" /> <path d="M25.5 9 v7" /> </g> <g id="flags" class="flags flagsBorder"> <path d="M6 3.5 h3" /> <path d="M11 3.5 h3" /> <path d="M16 3.5 h3" /> <path d="M21 5.5 h2" /> <path d="M24 8.5 h2" /> </g> <g id="sails" fill="url(#sailGradient)"> <rect x="10" y="5" width="3" height="10" /> <rect x="15" y="5" width="3" height="10" /> <rect x="20" y="7" width="2" height="8" /> <path d="M1 9 h1 v-1 h1 v-1 h1 v-1 h1 v-1 h3 v10 h-3 v-1 h-1 v-1 h-1 v-1 h-1 v-1 h-1 z" /> <path d="M26 10 h1 v1  h1 v1 h1 v1 h1 v1 h1 v1 h-5 z" /> </g> </g><g id="signets" transform="scale(10)"> <g id="signet1" class="signet1"><path d="M5 5 h1 v1 h-1 z" /><path d="M10 5 h1 v1 h-1 z" /><path d="M11 5 h1 v1 h-1 z" /><path d="M4 6 h1 v1 h-1 z" /><path d="M5 6 h1 v1 h-1 z" /><path d="M10 6 h1 v1 h-1 z" /><path d="M11 6 h1 v1 h-1 z" /><path d="M12 6 h1 v1 h-1 z" /><path d="M15 6 h1 v1 h-1 z" /><path d="M16 6 h1 v1 h-1 z" /><path d="M3 7 h1 v1 h-1 z" /><path d="M6 7 h1 v1 h-1 z" /><path d="M7 7 h1 v1 h-1 z" /><path d="M10 7 h1 v1 h-1 z" /><path d="M11 7 h1 v1 h-1 z" /><path d="M15 7 h1 v1 h-1 z" /><path d="M17 7 h1 v1 h-1 z" /><path d="M21 7 h1 v1 h-1 z" /><path d="M2 8 h1 v1 h-1 z" /><path d="M3 8 h1 v1 h-1 z" /><path d="M4 8 h1 v1 h-1 z" /><path d="M5 8 h1 v1 h-1 z" /><path d="M6 8 h1 v1 h-1 z" /><path d="M7 8 h1 v1 h-1 z" /><path d="M10 8 h1 v1 h-1 z" /><path d="M11 8 h1 v1 h-1 z" /><path d="M12 8 h1 v1 h-1 z" /><path d="M16 8 h1 v1 h-1 z" /><path d="M17 8 h1 v1 h-1 z" /><path d="M1 9 h1 v1 h-1 z" /><path d="M2 9 h1 v1 h-1 z" /><path d="M4 9 h1 v1 h-1 z" /><path d="M10 9 h1 v1 h-1 z" /><path d="M11 9 h1 v1 h-1 z" /><path d="M12 9 h1 v1 h-1 z" /><path d="M16 9 h1 v1 h-1 z" /><path d="M20 9 h1 v1 h-1 z" /><path d="M3 10 h1 v1 h-1 z" /><path d="M4 10 h1 v1 h-1 z" /><path d="M5 10 h1 v1 h-1 z" /><path d="M6 10 h1 v1 h-1 z" /><path d="M7 10 h1 v1 h-1 z" /><path d="M11 10 h1 v1 h-1 z" /><path d="M15 10 h1 v1 h-1 z" /><path d="M16 10 h1 v1 h-1 z" /><path d="M20 10 h1 v1 h-1 z" /><path d="M21 10 h1 v1 h-1 z" /><path d="M2 11 h1 v1 h-1 z" /><path d="M3 11 h1 v1 h-1 z" /><path d="M4 11 h1 v1 h-1 z" /><path d="M5 11 h1 v1 h-1 z" /><path d="M6 11 h1 v1 h-1 z" /><path d="M7 11 h1 v1 h-1 z" /><path d="M10 11 h1 v1 h-1 z" /><path d="M11 11 h1 v1 h-1 z" /><path d="M12 11 h1 v1 h-1 z" /><path d="M15 11 h1 v1 h-1 z" /><path d="M16 11 h1 v1 h-1 z" /><path d="M17 11 h1 v1 h-1 z" /><path d="M27 11 h1 v1 h-1 z" /><path d="M10 12 h1 v1 h-1 z" /><path d="M11 12 h1 v1 h-1 z" /><path d="M15 12 h1 v1 h-1 z" /><path d="M17 12 h1 v1 h-1 z" /><path d="M20 12 h1 v1 h-1 z" /><path d="M21 12 h1 v1 h-1 z" /><path d="M26 12 h1 v1 h-1 z" /><path d="M27 12 h1 v1 h-1 z" /><path d="M28 12 h1 v1 h-1 z" /><path d="M4 13 h1 v1 h-1 z" /><path d="M5 13 h1 v1 h-1 z" /><path d="M6 13 h1 v1 h-1 z" /><path d="M11 13 h1 v1 h-1 z" /><path d="M12 13 h1 v1 h-1 z" /><path d="M15 13 h1 v1 h-1 z" /><path d="M16 13 h1 v1 h-1 z" /><path d="M17 13 h1 v1 h-1 z" /><path d="M20 13 h1 v1 h-1 z" /><path d="M21 13 h1 v1 h-1 z" /><path d="M27 13 h1 v1 h-1 z" /><path d="M28 13 h1 v1 h-1 z" /><path d="M11 14 h1 v1 h-1 z" /><path d="M17 14 h1 v1 h-1 z" /><path d="M26 14 h1 v1 h-1 z" /><path d="M28 14 h1 v1 h-1 z" /></g> </g></svg>