<?xml version="1.0"?><svg xmlns="http://www.w3.org/2000/svg" viewBox="0 0 500 500" preserveAspectRatio="xMinYMin meet" version="1.1"><defs><style type="text/css">.background { fill: none; }.sailTop { stop-color: rgb(232,25,237); }.sailBottom { stop-color: rgb(41,35,130); }.bodyColor1 { fill: rgb(232,25,237); }.bodyColor2 { fill: rgb(41,35,130); }.hull { fill: rgb(32,54,76); }.windowLine { fill: rgb(85,248,4); }.window { fill: rgb(194,44,88); }.masts { stroke: rgb(255,78,36); }.flags { stroke: rgb(7,47,72); }.signet1 { fill: rgb(35,57,73); }.signet2 { fill: rgb(195,77,69); }.signet3 { fill: rgb(74,123,187); }.flagsBorder { opacity:1; }.border { fill: #fff }</style><linearGradient id="sailGradient" gradientTransform="rotate(90)"> <stop offset="5%" class="sailTop"/> <stop offset="95%" class="sailBottom"/> </linearGradient></defs><rect width="100%" height="100%" class="background" fill="none"/><g transform="scale(10) translate(9 13)"> <g id="border" class="border"> <path d="M0 8 h1 v-1 h1 v-1 h1 v-1 h1 v-1 h3 v-1 h3 v1 h2 v-1 h3 v1 h2 v-1 h3 v3 h1 v-1 h3 v3 h3 v1 h1 v1 h1 v1 h1 v1 h1 v1 h1 v5 h-3 v1 h-1 v1 h-1 v1 h-1 v2 h-22 v-3 h1 v-2 h-2 v-4 h-1 v-1 h-1 v-1 h-1 z"/> <g class="flagsBorder"> <path d="M5 2 h5 v3 h-5z"/> <path d="M10 2 h5 v3 h-5z"/> <path d="M15 2 h5 v3 h-5z"/> <path d="M20 4 h4 v3 h-4z"/> <path d="M23 7 h4 v3 h-4z"/> </g> </g> <g> <path id="hull" d="M4 16 h 27 v1 h-3 v1 h-1 v1 h-1 v1 h-1 v2 h-20 v-1 h1 v-1 h1 v-1 h1 v-1 h-2 v-1 h-2 z" class="hull"/> <path id="window-line" d="M8 18 h19 v1 h-19 z" class="windowLine"/> <g id="windows" class="window"> <path d="M11 18 h1 v1 h-1 z"/> <path d="M14 18 h1 v1 h-1 z"/> <path d="M17 18 h1 v1 h-1 z"/> <path d="M20 18 h1 v1 h-1 z"/> <path d="M23 18 h1 v1 h-1 z"/> </g> </g> <g id="masts" class="masts"> <path d="M8.5 4 v12"/> <path d="M13.5 4 v12"/> <path d="M18.5 4 v12"/> <path d="M22.5 6 v10"/> <path d="M25.5 9 v7"/> </g> <g id="flags" class="flags flagsBorder"> <path d="M6 3.5 h3"/> <path d="M11 3.5 h3"/> <path d="M16 3.5 h3"/> <path d="M21 5.5 h2"/> <path d="M24 8.5 h2"/> </g> <g id="sails" fill="url(#sailGradient)"> <rect x="10" y="5" width="3" height="10"/> <rect x="15" y="5" width="3" height="10"/> <rect x="20" y="7" width="2" height="8"/> <path d="M1 9 h1 v-1 h1 v-1 h1 v-1 h1 v-1 h3 v10 h-3 v-1 h-1 v-1 h-1 v-1 h-1 v-1 h-1 z"/> <path d="M26 10 h1 v1  h1 v1 h1 v1 h1 v1 h1 v1 h-5 z"/> </g> </g><g id="signets" transform="scale(10) translate(9 13)"> <g id="signet1" class="signet1"><path d="M5 5 h1 v1 h-1 z"/><path d="M6 5 h1 v1 h-1 z"/><path d="M7 5 h1 v1 h-1 z"/><path d="M15 5 h1 v1 h-1 z"/><path d="M6 6 h1 v1 h-1 z"/><path d="M10 6 h1 v1 h-1 z"/><path d="M12 6 h1 v1 h-1 z"/><path d="M6 7 h1 v1 h-1 z"/><path d="M7 7 h1 v1 h-1 z"/><path d="M10 7 h1 v1 h-1 z"/><path d="M11 7 h1 v1 h-1 z"/><path d="M20 7 h1 v1 h-1 z"/><path d="M2 8 h1 v1 h-1 z"/><path d="M3 8 h1 v1 h-1 z"/><path d="M6 8 h1 v1 h-1 z"/><path d="M10 8 h1 v1 h-1 z"/><path d="M21 8 h1 v1 h-1 z"/><path d="M2 9 h1 v1 h-1 z"/><path d="M3 9 h1 v1 h-1 z"/><path d="M5 9 h1 v1 h-1 z"/><path d="M6 9 h1 v1 h-1 z"/><path d="M7 9 h1 v1 h-1 z"/><path d="M11 9 h1 v1 h-1 z"/><path d="M16 9 h1 v1 h-1 z"/><path d="M17 9 h1 v1 h-1 z"/><path d="M21 9 h1 v1 h-1 z"/><path d="M1 10 h1 v1 h-1 z"/><path d="M3 10 h1 v1 h-1 z"/><path d="M4 10 h1 v1 h-1 z"/><path d="M5 10 h1 v1 h-1 z"/><path d="M7 10 h1 v1 h-1 z"/><path d="M12 10 h1 v1 h-1 z"/><path d="M15 10 h1 v1 h-1 z"/><path d="M16 10 h1 v1 h-1 z"/><path d="M17 10 h1 v1 h-1 z"/><path d="M4 11 h1 v1 h-1 z"/><path d="M5 11 h1 v1 h-1 z"/><path d="M6 11 h1 v1 h-1 z"/><path d="M10 11 h1 v1 h-1 z"/><path d="M12 11 h1 v1 h-1 z"/><path d="M17 11 h1 v1 h-1 z"/><path d="M21 11 h1 v1 h-1 z"/><path d="M27 11 h1 v1 h-1 z"/><path d="M7 12 h1 v1 h-1 z"/><path d="M10 12 h1 v1 h-1 z"/><path d="M15 12 h1 v1 h-1 z"/><path d="M27 12 h1 v1 h-1 z"/><path d="M5 13 h1 v1 h-1 z"/><path d="M10 13 h1 v1 h-1 z"/><path d="M11 13 h1 v1 h-1 z"/><path d="M21 13 h1 v1 h-1 z"/><path d="M27 13 h1 v1 h-1 z"/><path d="M28 13 h1 v1 h-1 z"/><path d="M29 13 h1 v1 h-1 z"/><path d="M5 14 h1 v1 h-1 z"/><path d="M6 14 h1 v1 h-1 z"/><path d="M7 14 h1 v1 h-1 z"/><path d="M12 14 h1 v1 h-1 z"/><path d="M15 14 h1 v1 h-1 z"/><path d="M21 14 h1 v1 h-1 z"/><path d="M28 14 h1 v1 h-1 z"/><path d="M30 14 h1 v1 h-1 z"/></g> </g></svg>