<?xml version="1.0" ?><svg xmlns="http://www.w3.org/2000/svg" width="320" height="240" version="1.1"><defs><style type="text/css">.sailTop { stop-color: rgb(244,12,50); }.sailBottom { stop-color: rgb(106,126,113); }.bodyColor1 { fill: rgb(244,12,50); }.bodyColor2 { fill: rgb(106,126,113); }.hull { fill: rgb(250,183,226); }.windowLine { fill: rgb(203,159,45); }.window { fill: rgb(115,176,194); }.masts { stroke: rgb(250,74,75); }.flags { stroke: rgb(253,205,238); }.signet1 { fill: rgb(38,59,7); }.signet2 { fill: rgb(18,118,82); }.signet3 { fill: rgb(45,14,177); }.flagsBorder { opacity:0; }.border { fill: #fff }</style><linearGradient id="sailGradient" gradientTransform="rotate(90)"> <stop offset="5%"  class="sailTop"/> <stop offset="95%" class="sailBottom"/> </linearGradient></defs><g transform="scale(10)"> <g id="border" class="border"> <path d="M3 9 h1 v-1 h1 v-1 h1 v-1 h3 v-1 h7 v-1 h3 v2 h1 v-1 h3 v2 h1 v1 h1 v1 h1 v1 h1 v1 h1 v1 h1 v6 h-2 v1 h-1 v1 h-1 v1 h-1 v1 h-17 v-4 h-2 v-4 h-1 v-1 h-1 z"/> <g class="flagsBorder"> <path d="M7 4 h5 v3 h-5z" /> <path d="M14 3 h5 v3 h-5z" /> <path d="M19 4 h4 v3 h-4z" /> </g> </g> <g> <path id="hull" d="M6 16 h 22 v1 h-2 v1 h-1 v1 h-1 v1 h-1 v1 h-15 v-1 h1 v-1 h1 v-1 h-2 v-1 h-2 z" class="hull" /> <path id="window-line" d="M10 18 h15 v1 h-15 z" class="windowLine"/> <g id="windows" class="window"> <path id="window-1" d="M12 18 h1 v1 h-1 z" /> <path id="window-1" d="M12 18 h1 v1 h-1 z" /> <path id="window-2" d="M12 18 h1 v1 h-1 z" /> </g> </g> <g id="masts" class="masts"> <path d="M10.5 6 v10" /> <path d="M17.5 5 v11" /> <path d="M21.5 6 v10" /> </g> <g id="flags" class="flags flagsBorder"> <path d="M8 5.5 h3" /> <path d="M15 4.5 h3" /> <path d="M20 5.5 h2" /> </g> <g id="sails" fill="url(#sailGradient)"> <rect x="12" y="6" width="5" height="9" /> <rect x="19" y="7" width="2" height="8" /> <path d="M7 7 h3 v8 h-3 v-1 h-1 v-1 h-1 v-1 h-1  v-2 h1 v-1 h1 v-1 h1 z"/> <path d=" M22 8 h1 v1 h1 v1 h1 v1 h1 v1 h1 v1  h1 v2 h-6 z" /> </g> </g><g id="signets" transform="scale(10)"> <g id="signet1" class="signet1"><path d="M14 6 h1 v1 h-1 z" /><path d="M15 6 h1 v1 h-1 z" /><path d="M16 6 h1 v1 h-1 z" /><path d="M12 7 h1 v1 h-1 z" /><path d="M13 7 h1 v1 h-1 z" /><path d="M15 7 h1 v1 h-1 z" /><path d="M6 8 h1 v1 h-1 z" /><path d="M8 8 h1 v1 h-1 z" /><path d="M9 8 h1 v1 h-1 z" /><path d="M14 8 h1 v1 h-1 z" /><path d="M20 8 h1 v1 h-1 z" /><path d="M22 8 h1 v1 h-1 z" /><path d="M5 9 h1 v1 h-1 z" /><path d="M9 9 h1 v1 h-1 z" /><path d="M13 9 h1 v1 h-1 z" /><path d="M14 9 h1 v1 h-1 z" /><path d="M19 9 h1 v1 h-1 z" /><path d="M20 9 h1 v1 h-1 z" /><path d="M22 9 h1 v1 h-1 z" /><path d="M5 10 h1 v1 h-1 z" /><path d="M8 10 h1 v1 h-1 z" /><path d="M12 10 h1 v1 h-1 z" /><path d="M13 10 h1 v1 h-1 z" /><path d="M14 10 h1 v1 h-1 z" /><path d="M16 10 h1 v1 h-1 z" /><path d="M19 10 h1 v1 h-1 z" /><path d="M23 10 h1 v1 h-1 z" /><path d="M24 10 h1 v1 h-1 z" /><path d="M5 11 h1 v1 h-1 z" /><path d="M7 11 h1 v1 h-1 z" /><path d="M9 11 h1 v1 h-1 z" /><path d="M12 11 h1 v1 h-1 z" /><path d="M15 11 h1 v1 h-1 z" /><path d="M19 11 h1 v1 h-1 z" /><path d="M23 11 h1 v1 h-1 z" /><path d="M7 12 h1 v1 h-1 z" /><path d="M8 12 h1 v1 h-1 z" /><path d="M13 12 h1 v1 h-1 z" /><path d="M15 12 h1 v1 h-1 z" /><path d="M16 12 h1 v1 h-1 z" /><path d="M20 12 h1 v1 h-1 z" /><path d="M22 12 h1 v1 h-1 z" /><path d="M24 12 h1 v1 h-1 z" /><path d="M6 13 h1 v1 h-1 z" /><path d="M7 13 h1 v1 h-1 z" /><path d="M8 13 h1 v1 h-1 z" /><path d="M9 13 h1 v1 h-1 z" /><path d="M12 13 h1 v1 h-1 z" /><path d="M13 13 h1 v1 h-1 z" /><path d="M22 13 h1 v1 h-1 z" /><path d="M26 13 h1 v1 h-1 z" /><path d="M7 14 h1 v1 h-1 z" /><path d="M8 14 h1 v1 h-1 z" /><path d="M9 14 h1 v1 h-1 z" /><path d="M16 14 h1 v1 h-1 z" /><path d="M19 14 h1 v1 h-1 z" /><path d="M22 14 h1 v1 h-1 z" /><path d="M25 14 h1 v1 h-1 z" /></g> </g></svg>