<?xml version="1.0" encoding="UTF-8" standalone="no"?>
<svg
   width="297.39795"
   zoomAndPan="magnify"
   viewBox="0 0 301.11542 70.000001"
   height="51.851852"
   preserveAspectRatio="xMidYMid"
   version="1.0"
   id="svg16"
   sodipodi:docname="yartsLogo.svg"
   inkscape:version="1.3.2 (091e20e, 2023-11-25, custom)"
   xmlns:inkscape="http://www.inkscape.org/namespaces/inkscape"
   xmlns:sodipodi="http://sodipodi.sourceforge.net/DTD/sodipodi-0.dtd"
   xmlns="http://www.w3.org/2000/svg"
   xmlns:svg="http://www.w3.org/2000/svg">
  <sodipodi:namedview
     id="namedview16"
     pagecolor="#ffffff"
     bordercolor="#666666"
     borderopacity="1.0"
     inkscape:showpageshadow="2"
     inkscape:pageopacity="0.0"
     inkscape:pagecheckerboard="0"
     inkscape:deskcolor="#d1d1d1"
     inkscape:zoom="1.355"
     inkscape:cx="210.70111"
     inkscape:cy="26.199262"
     inkscape:window-width="1920"
     inkscape:window-height="1009"
     inkscape:window-x="-8"
     inkscape:window-y="-8"
     inkscape:window-maximized="1"
     inkscape:current-layer="svg16" />
  <defs
     id="defs1">
    <g
       id="g1" />
  </defs>
  <g
     fill="#e5e8dc"
     fill-opacity="1"
     id="g4"
     transform="translate(-254.43981,-369.5)">
    <g
       transform="translate(199.2539,439.5)"
       id="g3">
      <g
         id="g2">
        <path
           d="M 69.5,0 H 10 v -20 h 49.5 v -7.5 H 15 L 5,-37.5 V -70 h 20 v 22.5 H 59.5 V -70 h 20 v 60 z M 18,-8 H 66.09375 L 71.5,-13.40625 V -62 h -4 v 22.5 H 17 V -62 h -4 v 21 l 5.40625,5.5 H 67.5 V -12 H 18 Z m 0,0"
           id="path1" />
      </g>
    </g>
  </g>
  <g
     fill="#e5e8dc"
     fill-opacity="1"
     id="g7"
     transform="translate(-254.43981,-369.5)">
    <g
       transform="translate(283.75064,439.5)"
       id="g6">
      <g
         id="g5">
        <path
           d="m 88.296875,0 h -22 L 61.59375,-10 h -34 L 23,0 H 1 l 23.296875,-50 h -7.5 V -70 H 55.59375 Z M 52.203125,-30 44.90625,-50 H 44.203125 L 36.90625,-30 Z M 71.40625,-8 h 4.296875 L 50.59375,-62 H 24.796875 v 4 H 36.90625 l -23.3125,50 h 4.203125 L 22.40625,-18 H 66.703125 Z M 48.5,-58 65.59375,-22 H 23.5 l 17.09375,-36 z m 0,0"
           id="path4" />
      </g>
    </g>
  </g>
  <g
     fill="#e5e8dc"
     fill-opacity="1"
     id="g10"
     transform="translate(-254.43981,-369.5)">
    <g
       transform="translate(373.0472,439.5)"
       id="g9">
      <g
         id="g8">
        <path
           d="M 80,0 H 55.703125 l -15,-15 H 28 V 0 H 8 v -45 h 20 v 10 H 55 V -50 H 0.5 V -70 H 65 l 10,10 v 35 L 65,-15 Z M 62.59375,-8 47.5,-23 H 61.59375 L 67,-28.40625 V -56.703125 L 61.59375,-62 H 8.5 v 4 H 63 v 31 H 20 v -10 h -4 v 29 h 4 v -15 h 22.09375 l 15.109375,15 z m 0,0"
           id="path7" />
      </g>
    </g>
  </g>
  <g
     fill="#e5e8dc"
     fill-opacity="1"
     id="g13"
     transform="translate(-254.43981,-369.5)">
    <g
       transform="translate(454.04407,439.5)"
       id="g12">
      <g
         id="g11">
        <path
           d="m 48.09375,0 h -20 V -50 H 0.5 v -20 h 75.203125 v 20 H 48.09375 Z m -12,-8 h 4 v -50 h 27.609375 v -4 H 8.5 v 4 h 27.59375 z m 0,0"
           id="path10" />
      </g>
    </g>
  </g>
  <g
     fill="#e5e8dc"
     fill-opacity="1"
     id="g16"
     transform="translate(-254.43981,-369.5)">
    <g
       transform="translate(530.24114,439.5)"
       id="g15">
      <g
         id="g14">
        <path
           d="M 65.5,0 H 5 v -20 h 50.5 v -5 H 15 L 5,-35 v -25 l 10,-10 h 60.5 v 20 H 25 v 5 h 40.5 l 10,10 v 25 z M 13,-8 H 62.09375 L 67.5,-13.40625 V -31.703125 L 62.09375,-37 H 17 v -21 h 50.5 v -4 H 18.40625 L 13,-56.59375 V -38.5 l 5.40625,5.5 H 63.5 v 21 H 13 Z m 0,0"
           id="path13" />
      </g>
    </g>
  </g>
</svg>
