<svg xmlns="http://www.w3.org/2000/svg" xmlns:xlink="http://www.w3.org/1999/xlink" width="500" zoomAndPan="magnify" viewBox="0 0 375 112.499997" height="150" preserveAspectRatio="xMidYMid meet" version="1.0"><defs><g/></defs><g fill="#e5e8dc" fill-opacity="1"><g transform="translate(0.829651, 85.511634)"><g><path d="M 63.046875 0 L 9.078125 0 L 9.078125 -18.140625 L 53.984375 -18.140625 L 53.984375 -24.953125 L 13.609375 -24.953125 L 4.53125 -34.015625 L 4.53125 -63.5 L 22.671875 -63.5 L 22.671875 -43.09375 L 53.984375 -43.09375 L 53.984375 -63.5 L 72.125 -63.5 L 72.125 -9.078125 Z M 16.328125 -7.25 L 59.96875 -7.25 L 64.859375 -12.15625 L 64.859375 -56.25 L 61.234375 -56.25 L 61.234375 -35.828125 L 15.421875 -35.828125 L 15.421875 -56.25 L 11.796875 -56.25 L 11.796875 -37.1875 L 16.6875 -32.203125 L 61.234375 -32.203125 L 61.234375 -10.890625 L 16.328125 -10.890625 Z M 16.328125 -7.25 "/></g></g></g><g fill="#e5e8dc" fill-opacity="1"><g transform="translate(77.492278, 85.511634)"><g><path d="M 80.109375 0 L 60.140625 0 L 55.875 -9.078125 L 25.03125 -9.078125 L 20.859375 0 L 0.90625 0 L 22.046875 -45.359375 L 15.234375 -45.359375 L 15.234375 -63.5 L 50.4375 -63.5 Z M 47.359375 -27.21875 L 40.734375 -45.359375 L 40.09375 -45.359375 L 33.46875 -27.21875 Z M 64.765625 -7.25 L 68.671875 -7.25 L 45.90625 -56.25 L 22.5 -56.25 L 22.5 -52.609375 L 33.46875 -52.609375 L 12.34375 -7.25 L 16.140625 -7.25 L 20.328125 -16.328125 L 60.515625 -16.328125 Z M 44 -52.609375 L 59.515625 -19.953125 L 21.3125 -19.953125 L 36.828125 -52.609375 Z M 44 -52.609375 "/></g></g></g><g fill="#e5e8dc" fill-opacity="1"><g transform="translate(158.509713, 85.511634)"><g><path d="M 72.578125 0 L 50.53125 0 L 36.921875 -13.609375 L 25.40625 -13.609375 L 25.40625 0 L 7.25 0 L 7.25 -40.828125 L 25.40625 -40.828125 L 25.40625 -31.75 L 49.890625 -31.75 L 49.890625 -45.359375 L 0.453125 -45.359375 L 0.453125 -63.5 L 58.96875 -63.5 L 68.03125 -54.4375 L 68.03125 -22.671875 L 58.96875 -13.609375 Z M 56.796875 -7.25 L 43.09375 -20.859375 L 55.875 -20.859375 L 60.78125 -25.765625 L 60.78125 -51.4375 L 55.875 -56.25 L 7.71875 -56.25 L 7.71875 -52.609375 L 57.15625 -52.609375 L 57.15625 -24.5 L 18.140625 -24.5 L 18.140625 -33.5625 L 14.515625 -33.5625 L 14.515625 -7.25 L 18.140625 -7.25 L 18.140625 -20.859375 L 38.1875 -20.859375 L 51.890625 -7.25 Z M 56.796875 -7.25 "/></g></g></g><g fill="#e5e8dc" fill-opacity="1"><g transform="translate(231.996963, 85.511634)"><g><path d="M 43.640625 0 L 25.484375 0 L 25.484375 -45.359375 L 0.453125 -45.359375 L 0.453125 -63.5 L 68.671875 -63.5 L 68.671875 -45.359375 L 43.640625 -45.359375 Z M 32.75 -7.25 L 36.375 -7.25 L 36.375 -52.609375 L 61.421875 -52.609375 L 61.421875 -56.25 L 7.71875 -56.25 L 7.71875 -52.609375 L 32.75 -52.609375 Z M 32.75 -7.25 "/></g></g></g><g fill="#e5e8dc" fill-opacity="1"><g transform="translate(301.129426, 85.511634)"><g><path d="M 59.421875 0 L 4.53125 0 L 4.53125 -18.140625 L 50.34375 -18.140625 L 50.34375 -22.671875 L 13.609375 -22.671875 L 4.53125 -31.75 L 4.53125 -54.4375 L 13.609375 -63.5 L 68.5 -63.5 L 68.5 -45.359375 L 22.671875 -45.359375 L 22.671875 -40.828125 L 59.421875 -40.828125 L 68.5 -31.75 L 68.5 -9.078125 Z M 11.796875 -7.25 L 56.34375 -7.25 L 61.234375 -12.15625 L 61.234375 -28.765625 L 56.34375 -33.5625 L 15.421875 -33.5625 L 15.421875 -52.609375 L 61.234375 -52.609375 L 61.234375 -56.25 L 16.6875 -56.25 L 11.796875 -51.34375 L 11.796875 -34.921875 L 16.6875 -29.9375 L 57.609375 -29.9375 L 57.609375 -10.890625 L 11.796875 -10.890625 Z M 11.796875 -7.25 "/></g></g></g></svg>