<svg xmlns="http://www.w3.org/2000/svg" xmlns:xlink="http://www.w3.org/1999/xlink" viewBox="0 0 810 810" preserveAspectRatio="xMidYMid meet" version="1.0"><defs><g/></defs><g fill="#e5e8dc" fill-opacity="1"><g transform="translate(199.2539, 439.499998)"><g><path d="M 69.5 0 L 10 0 L 10 -20 L 59.5 -20 L 59.5 -27.5 L 15 -27.5 L 5 -37.5 L 5 -70 L 25 -70 L 25 -47.5 L 59.5 -47.5 L 59.5 -70 L 79.5 -70 L 79.5 -10 Z M 18 -8 L 66.09375 -8 L 71.5 -13.40625 L 71.5 -62 L 67.5 -62 L 67.5 -39.5 L 17 -39.5 L 17 -62 L 13 -62 L 13 -41 L 18.40625 -35.5 L 67.5 -35.5 L 67.5 -12 L 18 -12 Z M 18 -8 "/></g></g></g><g fill="#e5e8dc" fill-opacity="1"><g transform="translate(283.750638, 439.499998)"><g><path d="M 88.296875 0 L 66.296875 0 L 61.59375 -10 L 27.59375 -10 L 23 0 L 1 0 L 24.296875 -50 L 16.796875 -50 L 16.796875 -70 L 55.59375 -70 Z M 52.203125 -30 L 44.90625 -50 L 44.203125 -50 L 36.90625 -30 Z M 71.40625 -8 L 75.703125 -8 L 50.59375 -62 L 24.796875 -62 L 24.796875 -58 L 36.90625 -58 L 13.59375 -8 L 17.796875 -8 L 22.40625 -18 L 66.703125 -18 Z M 48.5 -58 L 65.59375 -22 L 23.5 -22 L 40.59375 -58 Z M 48.5 -58 "/></g></g></g><g fill="#e5e8dc" fill-opacity="1"><g transform="translate(373.047199, 439.499998)"><g><path d="M 80 0 L 55.703125 0 L 40.703125 -15 L 28 -15 L 28 0 L 8 0 L 8 -45 L 28 -45 L 28 -35 L 55 -35 L 55 -50 L 0.5 -50 L 0.5 -70 L 65 -70 L 75 -60 L 75 -25 L 65 -15 Z M 62.59375 -8 L 47.5 -23 L 61.59375 -23 L 67 -28.40625 L 67 -56.703125 L 61.59375 -62 L 8.5 -62 L 8.5 -58 L 63 -58 L 63 -27 L 20 -27 L 20 -37 L 16 -37 L 16 -8 L 20 -8 L 20 -23 L 42.09375 -23 L 57.203125 -8 Z M 62.59375 -8 "/></g></g></g><g fill="#e5e8dc" fill-opacity="1"><g transform="translate(454.044071, 439.499998)"><g><path d="M 48.09375 0 L 28.09375 0 L 28.09375 -50 L 0.5 -50 L 0.5 -70 L 75.703125 -70 L 75.703125 -50 L 48.09375 -50 Z M 36.09375 -8 L 40.09375 -8 L 40.09375 -58 L 67.703125 -58 L 67.703125 -62 L 8.5 -62 L 8.5 -58 L 36.09375 -58 Z M 36.09375 -8 "/></g></g></g><g fill="#e5e8dc" fill-opacity="1"><g transform="translate(530.241142, 439.499998)"><g><path d="M 65.5 0 L 5 0 L 5 -20 L 55.5 -20 L 55.5 -25 L 15 -25 L 5 -35 L 5 -60 L 15 -70 L 75.5 -70 L 75.5 -50 L 25 -50 L 25 -45 L 65.5 -45 L 75.5 -35 L 75.5 -10 Z M 13 -8 L 62.09375 -8 L 67.5 -13.40625 L 67.5 -31.703125 L 62.09375 -37 L 17 -37 L 17 -58 L 67.5 -58 L 67.5 -62 L 18.40625 -62 L 13 -56.59375 L 13 -38.5 L 18.40625 -33 L 63.5 -33 L 63.5 -12 L 13 -12 Z M 13 -8 "/></g></g></g></svg>